<svg id="svg" version="1.1" viewBox="0 0 300 300" width="300" height="300" xmlns="http://www.w3.org/2000/svg"><svg xmlns="http://www.w3.org/2000/svg"><defs><clipPath id="clip-1"><rect x="0" y="0" transform="scale(0.14648,0.14648)" width="2048" height="2048" fill="none"/></clipPath></defs><g clip-path="url(#clip-1)" fill="none" fill-rule="nonzero" stroke="none" stroke-width="1" stroke-linecap="butt" stroke-linejoin="miter" stroke-miterlimit="10" stroke-dasharray="" stroke-dashoffset="0" font-family="none" font-weight="none" font-size="none" text-anchor="none" style="mix-blend-mode: normal"><path d="M49.14038,123.16362c-4.67988,-3.00938 -12.14487,-4.33608 -14.12549,-10.15679c-0.33765,-0.99243 -0.46113,-2.00479 -0.50186,-3.04761c-0.17549,-4.49766 0.0082,-9.05991 0.00894,-13.56416l-0.00806,-27.59165l-0.00234,-28.6752c-0.00381,-5.07378 -0.16846,-10.19341 0.01099,-15.25972c0.04351,-1.22607 0.10181,-2.71318 0.6627,-3.8187c0.44458,-0.86382 0.98774,-1.67314 1.61851,-2.41187c2.33262,-2.72974 5.17134,-5.20745 7.71182,-7.75627c1.51025,-1.51512 2.94551,-3.35457 4.61294,-4.67527c0.8792,-0.69636 2.0187,-1.2726 3.08833,-1.61517c1.95264,-0.61976 4.0541,-0.58613 5.98579,0.0958c3.12627,1.13621 7.66567,3.77196 10.78843,5.36921l20.45698,10.43268l66.6208,33.98628l74.18994,-38.18291l14.60742,-7.53119c2.71875,-1.40322 6.40576,-3.74083 9.34424,-4.41066c2.41699,-0.55106 5.0083,0.05956 7.0752,1.37681c1.92773,1.22861 3.57861,3.34189 4.04004,5.60459c0.65186,3.18665 0.24902,6.85976 0.24023,10.11362l-0.01318,17.19331l0.00293,42.40708c0,6.0041 0.19043,12.05991 0.06592,18.05742c-0.01904,0.95991 -0.14795,1.8624 -0.47168,2.77104c-0.30029,0.84624 -0.70312,1.6667 -1.23779,2.38989c-1.03564,1.39937 -2.4126,2.53813 -3.646,3.75835l-5.98828,5.96821c-1.03125,1.00781 -2.34668,2.09121 -3.1084,3.31084c-0.05127,0.08232 -0.09961,0.16685 -0.14941,0.2502c0.45996,0.16436 0.85547,0.27378 1.10596,0.7311c0.31201,0.56909 0.50391,2.59438 1.09131,2.8021c0.26221,0.09287 0.52002,0.07749 0.79541,0.08247c3.04395,-0.26938 6.00586,0.26265 8.39795,2.28062c1.66406,1.40391 2.99121,3.7333 3.12891,5.92266c0.13477,2.14453 0.02344,4.35542 0.01904,6.50889l0.00146,12.09448l0.00439,9.79688c0,2.09473 0.15527,4.30078 -0.21826,6.36914c-0.26367,1.45605 -1.11035,2.78906 -2.09033,3.87744c-1.81348,2.01123 -10.07666,9.37646 -10.88525,11.0874c0.03369,0.23877 0.08496,0.43359 0.17285,0.65918c0.44238,0.05859 0.89502,0.04834 1.22314,0.38525c0.24756,0.75293 -0.48779,2.41113 0.26514,2.85205c0.20801,0.12158 0.52734,0.18457 0.76025,0.25488l0.67822,-0.01758c1.87793,-0.05566 3.65771,0.29736 5.31738,1.20264c2.18848,1.19531 3.80566,3.2168 4.49268,5.61328c0.20508,0.71924 0.32666,1.46045 0.36182,2.20752c0.07178,1.59375 -0.08789,3.22998 -0.08936,4.82959l0.00146,12.87305l0.01465,9.37061c0.01318,1.83984 0.13916,3.75146 -0.03662,5.58398c-0.12158,1.26123 -0.49072,2.65576 -1.15137,3.74707c-0.74268,1.22461 -12.63428,13.0957 -14.02441,14.00537c-1.69775,1.11035 -3.63135,1.98193 -5.43457,2.91797l-9.60059,4.96729l-30.64746,15.76465l-41.51221,21.37793l-8.70117,4.50293c-2.24268,1.16895 -4.90723,2.9458 -7.37402,3.47168c-1.64678,0.35156 -3.6564,0.37793 -5.23652,-0.21826c-1.79077,-0.67676 -3.5647,-1.77393 -5.27578,-2.65137l-10.20264,-5.21484l-35.63716,-18.18604l-35.28721,-18.02783l-10.47305,-5.32031c-2.04404,-1.03418 -4.23867,-1.99658 -6.15308,-3.25049c-2.01152,-1.31836 -3.61025,-3.20654 -4.07783,-5.62646c-0.50068,-2.58984 -0.30776,-5.40088 -0.30498,-8.03174l0.02227,-10.97021l0.03457,-10.19824c0.00879,-1.86035 -0.0876,-3.80566 0.11162,-5.65283c0.11602,-1.0752 0.50742,-2.2998 1.08193,-3.23291c0.69595,-1.12939 1.77334,-2.09473 2.69561,-3.03955c2.26919,-2.32471 4.59375,-4.59229 6.87803,-6.90088c1.00635,-1.01807 2.24941,-2.07422 3.05801,-3.24609c-0.20845,-0.64014 -7.57295,-4.01807 -8.73281,-4.70215c-0.89854,-0.53027 -1.72485,-1.14697 -2.45977,-1.88965c-1.16763,-1.1792 -2.03364,-2.64551 -2.39517,-4.27441c-0.63838,-2.87695 -0.26602,-7.27441 -0.26558,-10.31396l0.04673,-20.50649c0.01582,-2.50049 -0.10254,-4.58906 0.9895,-6.9085c0.86938,-1.84644 11.40234,-11.94009 13.63726,-14.14746z" fill="#4d340b"/><path d="M151.11914,168.96533c8.07422,-4.32422 16.28174,-8.42725 24.42334,-12.62402l45.98584,-23.70352l18.55078,-9.56074c3.62549,-1.8687 7.3374,-3.64424 10.85596,-5.70776l0.08496,0.18252c0.45996,0.16436 0.85547,0.27378 1.10596,0.7311c0.31201,0.56909 0.50391,2.59438 1.09131,2.8021c0.26221,0.09287 0.52002,0.07749 0.79541,0.08247l0.04248,0.16699c-4.05762,1.36274 -7.91162,3.70811 -11.71875,5.67319l-19.06641,9.82925l-67.22168,34.65088c-1.63184,-0.86133 -3.27539,-1.70215 -4.9292,-2.52246z" fill="#fffeff"/><path d="M151.95117,231.43945c6.73535,-3.73975 13.75195,-7.10449 20.60596,-10.62891l38.77734,-19.96729l35.23242,-18.12305c1.06201,-0.54785 2.31592,-1.06348 3.29443,-1.73437c0.73389,-0.50391 1.396,-1.30078 2.18408,-1.69043c0.16992,0.28418 0.20508,0.31641 0.49805,0.46875c0.44238,0.05859 0.89502,0.04834 1.22314,0.38525c0.24756,0.75293 -0.48779,2.41113 0.26514,2.85205c0.20801,0.12158 0.52734,0.18457 0.76025,0.25488c-4.10156,1.021 -8.05664,3.55518 -11.79492,5.48438l-17.04346,8.79492l-69.90967,36.0249z" fill="#fffeff"/><path d="M54.61479,9.10764c0.63721,-0.04151 1.1209,0.00832 1.72661,0.22458c2.08052,0.74276 4.14038,2.00139 6.1125,3.00999l11.67583,5.97157l54.02578,27.54756l17.02983,8.69399c2.97773,1.52051 5.94551,3.20698 9.00996,4.53472c0.69434,0.30015 1.42529,0.4418 2.18262,0.37456c2.25146,-0.19995 14.63379,-7.08003 17.6001,-8.60068l55.31396,-28.50703l16.47217,-8.49888c2.84766,-1.47297 5.75391,-3.25756 8.73926,-4.39282c0.94922,-0.36089 1.99365,-0.34361 2.96045,-0.05139c1.16895,0.35263 2.2207,1.25895 2.76563,2.34989c0.44385,0.89071 0.46289,1.99941 0.49219,2.97967c0.13477,4.46177 0.00293,8.96338 -0.00146,13.43027l-0.00586,25.31426l-0.01025,33.80229c-0.01172,2.78921 0.46875,10.73599 -0.29004,12.9063c-0.71338,2.04053 -2.4668,2.86626 -4.26855,3.7519c-8.00684,4.25801 -16.13086,8.32163 -24.19189,12.4771l-47.80078,24.64307l-18.14648,9.35479c-2.28809,1.17773 -6.96387,3.96533 -9.27393,4.49707c-0.8877,0.20508 -1.94678,-0.13037 -2.74658,-0.49658c-2.4873,-1.14258 -4.91748,-2.47412 -7.35645,-3.71924l-13.4603,-6.87144l-40.2189,-20.50957l-27.33032,-13.93887l-8.62896,-4.40244c-1.38618,-0.70752 -2.90918,-1.3541 -4.2249,-2.17998c-1.08838,-0.68306 -1.75737,-1.47729 -2.06309,-2.72065c-0.64834,-2.63818 -0.29326,-7.49194 -0.29209,-10.35161l0.00952,-19.71416l-0.00396,-37.34224c-0.00176,-6.30088 -0.23203,-12.69053 0.02681,-18.97833c0.03794,-0.92165 0.24272,-1.70782 0.75088,-2.48802c0.80669,-1.23847 2.01211,-1.8168 3.4207,-2.09965z" fill="#fddba7"/><path d="M57.254,17.31797c2.68726,1.22959 5.30991,2.6877 7.94517,4.03169l15.43257,7.87456l47.35972,24.16084l15.76406,8.0543c2.81968,1.44111 5.83433,3.30513 8.84312,4.28408c2.22217,0.72334 4.87939,0.74722 7.09717,-0.01729c3.03955,-1.04795 6.5874,-3.21768 9.50244,-4.72002l18.53174,-9.54829l66.15967,-34.06069l0.02783,80.02383l-1.16895,0.63779l-96.68408,49.80059c-11.1019,-5.49316 -22.08369,-11.2626 -33.11924,-16.89272l-65.70835,-33.51782z" fill="#fe0000"/><path d="M55.02349,126.02271c0.60176,0.02944 1.10947,0.13623 1.67285,0.35244c2.02031,0.77549 3.98555,1.94019 5.9127,2.92676l10.67739,5.47017l54.51416,27.83145l16.89023,8.63818c3.04453,1.55713 6.07676,3.271 9.2042,4.64648c0.80127,0.35156 1.54395,0.52881 2.42285,0.4834c2.10791,-0.11279 16.12793,-7.80469 18.79395,-9.17871l54.01172,-27.82178l16.13379,-8.30742c2.96191,-1.53867 5.98389,-3.37456 9.06445,-4.6188c0.9917,-0.40063 1.86768,-0.49219 2.91064,-0.21709c1.25684,0.33193 2.30566,1.13262 2.91357,2.29116c0.38086,0.72759 0.5083,1.51406 0.55664,2.32529c0.10986,1.84189 0.02783,3.7311 0.0249,5.57695l-0.01758,10.01001l0.00146,9.6186c0.01465,1.74316 0.12891,3.51855 0.05127,5.25879c-0.02783,0.62109 -0.1084,1.23193 -0.31055,1.82227c-0.73242,2.1416 -2.77148,2.98975 -4.63623,3.91846c-2.89307,1.38135 -5.72754,2.94434 -8.57959,4.41504l-16.96143,8.74072l-50.57373,26.06689l-14.5708,7.51904c-1.98193,1.02246 -6.30469,3.59912 -8.24121,3.97998c-1.27002,0.24902 -2.47412,-0.22705 -3.60937,-0.75293c-2.78906,-1.29492 -5.51367,-2.82568 -8.24883,-4.23193l-13.30679,-6.77197l-43.83193,-22.36377l-23.97158,-12.23291l-7.39102,-3.76025c-1.33403,-0.67969 -2.80605,-1.31396 -4.04385,-2.15332c-1.08135,-0.73242 -1.67168,-1.5249 -1.89727,-2.81689c-0.38452,-2.20166 -0.18091,-4.63623 -0.18003,-6.87744l0.00938,-12.0104l0.00308,-8.38096c-0.00967,-1.59507 -0.14707,-3.26997 0.02168,-4.8542c0.10444,-0.97954 0.36343,-1.91997 0.9624,-2.71802c0.89868,-1.19707 2.19185,-1.64766 3.61846,-1.82329z" fill="#fddba7"/><path d="M57.25693,134.2541c7.44712,3.63926 14.78716,7.54351 22.17393,11.30728l46.23984,23.58413l18.06855,9.20654c2.82568,1.43262 5.75537,3.32227 8.75977,4.2832c2.32617,0.74414 5.04785,0.74854 7.3623,-0.05273c2.98975,-1.03564 6.50684,-3.18311 9.36328,-4.6582l18.7251,-9.66211l65.93701,-34.00811l0.03223,26.04375l-0.94482,0.52881l-96.93896,49.95557c-3.5918,-2.00684 -7.36963,-3.78662 -11.03818,-5.65723l-21.06035,-10.74609l-66.69302,-34.02246c-0.17344,-8.6748 -0.10195,-17.4249 0.01333,-26.10234z" fill="#fe0000"/><path d="M54.80244,188.12549c0.65332,-0.0249 1.18052,0.07764 1.79707,0.30029c2.09048,0.75732 4.15986,2.01416 6.14297,3.0293l11.96133,6.12451l53.7085,27.42041l16.86694,8.62354c2.93071,1.5 5.86479,3.19189 8.89116,4.47803c0.63867,0.27246 1.29053,0.42334 1.98779,0.39404c2.03613,-0.08496 15.58594,-7.50146 18.6416,-9.07471l53.96045,-27.7793l16.53955,-8.51514c2.93994,-1.52197 5.9165,-3.29883 8.96924,-4.56445c0.99609,-0.41455 1.81641,-0.55225 2.87842,-0.28711c1.20996,0.30176 2.30127,1.10449 2.91504,2.19434c0.42041,0.74707 0.57422,1.53955 0.63135,2.38477c0.12158,1.78271 0.03809,3.61963 0.03662,5.40967l-0.01758,9.7749l-0.00586,9.46729c0.01465,1.94971 0.12891,3.93311 0.04688,5.87988c-0.0249,0.60938 -0.104,1.21143 -0.29443,1.79297c-0.68115,2.06396 -2.47559,2.87109 -4.26855,3.76611l-74.29834,38.28662l-15.73682,8.10205c-2.0918,1.08691 -7.10449,4.06934 -9.19629,4.52344c-1.20703,0.26074 -2.50928,-0.26074 -3.59326,-0.76318c-2.82129,-1.30957 -5.57812,-2.85205 -8.34492,-4.27881l-13.1814,-6.71484l-43.84995,-22.36963l-24.10986,-12.30176l-7.28511,-3.70166c-1.36318,-0.69141 -2.86567,-1.34326 -4.12749,-2.20605c-1.01807,-0.6958 -1.68896,-1.57031 -1.898,-2.80371c-0.34292,-2.02295 -0.16113,-4.2583 -0.16025,-6.31201l0.00835,-10.97168l0.00718,-9.58447c-0.00542,-1.72266 -0.14736,-3.51855 0.02358,-5.23242c0.09185,-0.91992 0.35054,-1.84131 0.89253,-2.60156c0.83584,-1.17187 2.07568,-1.69336 3.46157,-1.88965z" fill="#fddba7"/><path d="M57.2502,196.34326c8.44512,4.19531 16.81377,8.55762 25.21304,12.84375l43.04663,21.95654l17.73193,9.06299c2.86128,1.46045 6.32168,3.58594 9.33047,4.54248c2.22949,0.71045 5.03027,0.7002 7.24512,-0.06299c2.84326,-0.98145 6.49219,-3.19043 9.23291,-4.604l18.41602,-9.50244l66.42188,-34.23193c0.00146,2.86523 0.19482,25.42822 0.00732,25.9292c-0.14648,0.39258 -0.63135,0.54492 -0.97998,0.74121l-96.84814,49.82666l-98.83022,-50.40381z" fill="#fe0000"/></g></svg></svg>